<?xml version="1.0" encoding="UTF-8" standalone="no"?>
<!-- Created with Inkscape (http://www.inkscape.org/) -->

<svg
   xmlns:dc="http://purl.org/dc/elements/1.1/"
   xmlns:cc="http://creativecommons.org/ns#"
   xmlns:rdf="http://www.w3.org/1999/02/22-rdf-syntax-ns#"
   xmlns:svg="http://www.w3.org/2000/svg"
   xmlns="http://www.w3.org/2000/svg"
   xmlns:xlink="http://www.w3.org/1999/xlink"
   xmlns:sodipodi="http://sodipodi.sourceforge.net/DTD/sodipodi-0.dtd"
   xmlns:inkscape="http://www.inkscape.org/namespaces/inkscape"
   version="1.0"
   width="96"
   height="96"
   id="svg2408"
   inkscape:version="0.48.4 r9939"
   sodipodi:docname="icon.svg"
   inkscape:export-filename="/home/stephen/Desktop/Link to cinnamon/applets/notify@scollins/icon.png"
   inkscape:export-xdpi="45"
   inkscape:export-ydpi="45">
  <metadata
     id="metadata67">
    <rdf:RDF>
      <cc:Work
         rdf:about="">
        <dc:format>image/svg+xml</dc:format>
        <dc:type
           rdf:resource="http://purl.org/dc/dcmitype/StillImage" />
        <dc:title />
      </cc:Work>
    </rdf:RDF>
  </metadata>
  <sodipodi:namedview
     pagecolor="#ffffff"
     bordercolor="#666666"
     borderopacity="1"
     objecttolerance="10"
     gridtolerance="10"
     guidetolerance="10"
     inkscape:pageopacity="0"
     inkscape:pageshadow="2"
     inkscape:window-width="1024"
     inkscape:window-height="690"
     id="namedview65"
     showgrid="false"
     inkscape:zoom="3.4766083"
     inkscape:cx="59.771958"
     inkscape:cy="44.64403"
     inkscape:window-x="0"
     inkscape:window-y="25"
     inkscape:window-maximized="1"
     inkscape:current-layer="svg2408" />
  <defs
     id="defs2410">
    <linearGradient
       id="linearGradient3853">
      <stop
         style="stop-color:#006103;stop-opacity:1;"
         offset="0"
         id="stop3855" />
      <stop
         id="stop3861"
         offset="0.40000001"
         style="stop-color:#008b04;stop-opacity:1;" />
      <stop
         style="stop-color:#008b04;stop-opacity:1;"
         offset="0.70167595"
         id="stop3867" />
      <stop
         style="stop-color:#006103;stop-opacity:1;"
         offset="1"
         id="stop3857" />
    </linearGradient>
    <linearGradient
       id="linearGradient3935">
      <stop
         style="stop-color:#956200;stop-opacity:1;"
         offset="0"
         id="stop3937" />
      <stop
         id="stop3943"
         offset="0.5"
         style="stop-color:#d28a00;stop-opacity:1;" />
      <stop
         style="stop-color:#956200;stop-opacity:1;"
         offset="1"
         id="stop3939" />
    </linearGradient>
    <linearGradient
       id="linearGradient3894">
      <stop
         style="stop-color:#583a00;stop-opacity:1;"
         offset="0"
         id="stop3896" />
      <stop
         id="stop3902"
         offset="0.25"
         style="stop-color:#956200;stop-opacity:1;" />
      <stop
         style="stop-color:#956200;stop-opacity:1;"
         offset="0.75"
         id="stop3904" />
      <stop
         style="stop-color:#583a00;stop-opacity:1;"
         offset="1"
         id="stop3898" />
    </linearGradient>
    <linearGradient
       x1="58.650177"
       y1="122"
       x2="58.650177"
       y2="5.4252338"
       id="linearGradient3848"
       gradientUnits="userSpaceOnUse"
       gradientTransform="matrix(1.0172414,0,0,1.0172414,-1.1034483,-1.1034483)">
      <stop
         id="stop3850"
         style="stop-color:#00AF00;stop-opacity:1"
         offset="0" />
      <stop
         id="stop3852"
         style="stop-color:#00ED2F;stop-opacity:1"
         offset="1" />
    </linearGradient>
    <linearGradient
       x1="45.447727"
       y1="92.539597"
       x2="45.447727"
       y2="7.0165396"
       id="ButtonShadow"
       gradientUnits="userSpaceOnUse"
       gradientTransform="scale(1.0058652,0.994169)">
      <stop
         id="stop3750"
         style="stop-color:#000000;stop-opacity:1"
         offset="0" />
      <stop
         id="stop3752"
         style="stop-color:#000000;stop-opacity:0.58823532"
         offset="1" />
    </linearGradient>
    <linearGradient
       id="linearGradient3737">
      <stop
         id="stop3739"
         style="stop-color:#ffffff;stop-opacity:1"
         offset="0" />
      <stop
         id="stop3741"
         style="stop-color:#ffffff;stop-opacity:0"
         offset="1" />
    </linearGradient>
    <filter
       color-interpolation-filters="sRGB"
       id="filter3174">
      <feGaussianBlur
         id="feGaussianBlur3176"
         stdDeviation="1.71" />
    </filter>
    <linearGradient
       x1="36.357143"
       y1="6"
       x2="36.357143"
       y2="63.893143"
       id="linearGradient3188"
       xlink:href="#linearGradient3737"
       gradientUnits="userSpaceOnUse" />
    <filter
       x="-0.192"
       y="-0.192"
       width="1.3839999"
       height="1.3839999"
       color-interpolation-filters="sRGB"
       id="filter3794">
      <feGaussianBlur
         id="feGaussianBlur3796"
         stdDeviation="5.28" />
    </filter>
    <linearGradient
       x1="48"
       y1="20.220806"
       x2="48"
       y2="138.66119"
       id="linearGradient3613"
       xlink:href="#linearGradient3737"
       gradientUnits="userSpaceOnUse" />
    <radialGradient
       cx="48"
       cy="90.171875"
       r="42"
       fx="48"
       fy="90.171875"
       id="radialGradient3619"
       xlink:href="#linearGradient3737"
       gradientUnits="userSpaceOnUse"
       gradientTransform="matrix(1.1573129,0,0,0.99590774,-7.5510206,0.19713193)" />
    <clipPath
       id="clipPath3613">
      <rect
         width="84"
         height="84"
         rx="6"
         ry="6"
         x="6"
         y="6"
         id="rect3615"
         style="fill:#ffffff;fill-opacity:1;fill-rule:nonzero;stroke:none" />
    </clipPath>
    <linearGradient
       x1="48"
       y1="90"
       x2="48"
       y2="5.9877172"
       id="linearGradient3617"
       xlink:href="#ButtonColor"
       gradientUnits="userSpaceOnUse" />
    <linearGradient
       x1="58.650177"
       y1="122"
       x2="58.650177"
       y2="5.4252338"
       id="ButtonColor"
       gradientUnits="userSpaceOnUse"
       gradientTransform="matrix(1.0172414,0,0,1.0172414,-1.1034483,-1.1034483)">
      <stop
         id="stop3401"
         style="stop-color:#00D600;stop-opacity:1"
         offset="0" />
      <stop
         id="stop3403"
         style="stop-color:#19FF47;stop-opacity:1"
         offset="1" />
    </linearGradient>
    <clipPath
       id="clipPath3836">
      <path
         d="m 112,6 c -3.324,0 -6,2.676 -6,6 l 0,23.71875 c 4.16476,5.590927 10.83896,9.218751 18.34375,9.21875 12.61273,0 22.84375,-10.231021 22.84375,-22.84375 0,-6.274884 -2.52698,-11.964405 -6.625,-16.09375 l -7.34375,0 c 5.78119,3.1123067 9.71875,9.225149 9.71875,16.25 0,10.181526 -8.25597,18.4375 -18.4375,18.4375 -10.18153,0 -18.4375,-8.255974 -18.4375,-18.4375 0,-7.024851 3.93756,-13.1376933 9.71875,-16.25 L 112,6 z m 34.375,0 0.46875,0.59375 0.5625,-0.40625 0.5,-0.1875 -1.53125,0 z m 5.96875,0 0.40625,0.75 -1.65625,2.15625 -1.4375,1.1875 -0.625,0.28125 1.0625,2.5625 0.65625,-0.25 1.84375,-0.15625 2.71875,0.34375 0.4375,1.71875 -2.15625,1.6875 -1.6875,0.75 -0.6875,0.125 0.375,2.75 0.6875,-0.0625 1.8125,0.3125 2.53125,1.0625 0,1.78125 -2.53125,1.03125 -1.8125,0.3125 -0.6875,-0.0625 -0.375,2.75 0.6875,0.125 1.6875,0.75 2.15625,1.6875 -0.4375,1.71875 -2.71875,0.375 L 150.75,31.5 l -0.65625,-0.21875 -1.0625,2.5625 0.625,0.25 1.4375,1.1875 1.65625,2.1875 L 151.875,39 149.15625,38.65625 147.40625,38 l -0.5625,-0.375 -1.6875,2.1875 0.53125,0.4375 1.0625,1.5 1.0625,2.53125 -1.25,1.28125 L 144,44.5 l -1.5,-1.0625 -0.4375,-0.53125 -2.1875,1.6875 0.375,0.5625 0.65625,1.75 0.34375,2.71875 -1.53125,0.875 -2.1875,-1.65625 -1.15625,-1.4375 -0.3125,-0.625 -2.53125,1.0625 0.21875,0.65625 0.1875,1.84375 -0.375,2.71875 -1.71875,0.46875 -1.65625,-2.1875 -0.78125,-1.6875 -0.125,-0.6875 -2.71875,0.375 0.0625,0.65625 -0.3125,1.84375 -1.0625,2.53125 -1.78125,0 -1.0625,-2.53125 L 122.125,50 l 0.0625,-0.65625 -2.75,-0.375 -0.125,0.6875 -0.75,1.6875 -1.6875,2.1875 -1.71875,-0.46875 -0.375,-2.71875 0.15625,-1.84375 0.25,-0.65625 -2.53125,-1.0625 -0.3125,0.625 -1.1875,1.4375 L 109,50.5 l -1.5625,-0.875 0.375,-2.71875 0.625,-1.75 0.40625,-0.5625 -2.1875,-1.6875 -0.4375,0.53125 L 106,43.59375 106,84 c 0,3.324 2.676,6 6,6 l 25.875,0 -0.25,-0.40625 1.84375,-2.4375 1.59375,-1.28125 0.65625,-0.34375 -1.15625,-2.8125 -0.71875,0.25 -2.03125,0.21875 -3,-0.40625 -0.53125,-1.90625 2.40625,-1.875 1.875,-0.8125 0.75,-0.15625 L 138.90625,75 l -0.75,0.0625 -2.03125,-0.34375 -2.8125,-1.15625 0,-1.96875 2.8125,-1.1875 2.03125,-0.3125 0.75,0.0625 0.40625,-3.03125 -0.75,-0.15625 -1.875,-0.84375 -2.40625,-1.84375 0.53125,-1.90625 3,-0.40625 2.03125,0.1875 0.71875,0.25 1.15625,-2.8125 -0.65625,-0.3125 -1.59375,-1.3125 -1.84375,-2.40625 1,-1.71875 3,0.40625 1.90625,0.71875 0.625,0.4375 1.875,-2.4375 -0.59375,-0.5 L 144.25,50.8125 143.09375,48 144.5,46.625 l 2.8125,1.125 1.65625,1.21875 0.5,0.5625 2.40625,-1.84375 -0.4375,-0.65625 -0.6875,-1.875 -0.40625,-3.03125 1.6875,-1 2.4375,1.84375 1.3125,1.59375 0.3125,0.6875 2.8125,-1.1875 -0.25,-0.6875 -0.1875,-2.0625 0.40625,-3 1.875,-0.5 1.875,2.40625 0.84375,1.875 0.125,0.71875 3.03125,-0.375 -0.0625,-0.78125 0.34375,-2 1.1875,-2.8125 1.96875,0 1.15625,2.8125 0.34375,2 -0.0625,0.78125 3.03125,0.375 0.125,-0.71875 0.84375,-1.875 1.875,-2.40625 1.875,0.5 0.4375,3 -0.21875,2.0625 -0.25,0.6875 2.8125,1.1875 0.34375,-0.6875 1.28125,-1.59375 2.40625,-1.84375 1.71875,1 -0.375,3.03125 -0.75,1.875 -0.40625,0.65625 2.40625,1.84375 0.5,-0.5625 L 190,48.34375 190,12 c 0,-3.324 -2.676,-6 -6,-6 L 152.34375,6 z M 124.5,8.625 c -7.53154,0 -13.65625,6.09346 -13.65625,13.625 0,7.53154 6.12471,13.65625 13.65625,13.65625 7.53154,0 13.625,-6.12471 13.625,-13.65625 0,-7.53154 -6.09346,-13.625 -13.625,-13.625 z m 44.5625,38.53125 c -5.74578,0 -11.05193,1.907852 -15.3125,5.125 l 8.15625,8.78125 c 2.0761,-1.293182 4.53192,-2.03125 7.15625,-2.03125 1.32352,0 2.60305,0.17696 3.8125,0.53125 l 5.5,-10.625 c -2.88236,-1.135296 -6.0278,-1.78125 -9.3125,-1.78125 z m 13.90625,4.15625 -5.5,10.65625 c 3.0873,2.451345 5.10585,6.203919 5.15625,10.4375 L 190,73.75 190,58.1875 c -1.87421,-2.717952 -4.26324,-5.061314 -7.03125,-6.875 z m -62.65625,2.15625 1.21875,0 0.9375,2.09375 0.0625,0.71875 -0.1875,1.28125 2.21875,0.59375 0.46875,-1.1875 0.4375,-0.59375 1.875,-1.3125 1.0625,0.625 -0.25,2.25 -0.28125,0.6875 -0.8125,0.96875 1.625,1.65625 1,-0.78125 0.6875,-0.3125 2.25,-0.21875 0.625,1.0625 -1.34375,1.84375 -0.59375,0.4375 -1.1875,0.46875 0.59375,2.21875 1.25,-0.1875 0.75,0.09375 2.0625,0.9375 0,1.25 -2.09375,0.9375 -0.71875,0.0625 -1.25,-0.1875 -0.625,2.21875 1.1875,0.46875 0.59375,0.4375 1.34375,1.84375 -0.625,1.0625 -2.28125,-0.21875 -0.65625,-0.3125 -1,-0.78125 -1.625,1.625 0.78125,1 0.28125,0.65625 0.21875,2.28125 -1.0625,0.59375 -1.84375,-1.3125 -0.4375,-0.625 -0.46875,-1.15625 -2.21875,0.5625 0.1875,1.28125 -0.0625,0.71875 -0.96875,2.09375 -1.21875,0 -0.9375,-2.09375 -0.0625,-0.75 0.1875,-1.25 -2.21875,-0.59375 -0.5,1.1875 -0.40625,0.59375 -1.875,1.3125 -1.0625,-0.625 0.21875,-2.25 0.3125,-0.6875 0.8125,-1 -1.625,-1.625 -1,0.78125 -0.6875,0.3125 -2.28125,0.21875 -0.59375,-1.0625 1.34375,-1.875 0.59375,-0.40625 1.1875,-0.46875 -0.59375,-2.21875 -1.25,0.15625 -0.75,-0.0625 -2.0625,-0.9375 0,-1.25 2.0625,-0.9375 0.75,-0.0625 1.25,0.1875 0.59375,-2.21875 -1.15625,-0.46875 -0.59375,-0.4375 -1.34375,-1.84375 0.625,-1.0625 2.28125,0.21875 0.65625,0.3125 1,0.78125 1.625,-1.625 -0.78125,-1 L 113.625,57.90625 113.40625,55.625 114.5,55 l 1.84375,1.34375 0.4375,0.59375 0.4375,1.1875 2.25,-0.59375 -0.1875,-1.25 0.0625,-0.71875 0.96875,-2.09375 z m 29.625,2.34375 c -3.93256,4.474843 -6.3125,10.329221 -6.3125,16.75 0,2.868692 0.49734,5.613964 1.375,8.1875 l 10.90625,-4.96875 C 155.65791,74.755862 155.5,73.663871 155.5,72.5625 c 0,-2.983379 0.9581,-5.72947 2.59375,-7.96875 L 149.9375,55.8125 z m -29.09375,8.375 c -1.81315,0 -3.28125,1.468102 -3.28125,3.28125 0,1.813148 1.4681,3.28125 3.28125,3.28125 1.81315,0 3.28125,-1.468102 3.28125,-3.28125 0,-1.813148 -1.4681,-3.28125 -3.28125,-3.28125 z m 48.21875,3.28125 c -2.78946,0 -5.03125,2.241791 -5.03125,5.03125 0,2.789459 2.24179,5.0625 5.03125,5.0625 2.78946,0 5.0625,-2.273041 5.0625,-5.0625 0,-2.789459 -2.27304,-5.03125 -5.0625,-5.03125 z M 181.6875,77.5 c -1.44987,3.708793 -4.49322,6.621554 -8.28125,7.90625 L 174.03125,90 184,90 c 3.324,0 6,-2.676 6,-6 L 190,79.03125 181.6875,77.5 z m -23.625,2.96875 -10.90625,5 c 0.96641,1.636602 2.11102,3.15601 3.40625,4.53125 l 18.25,0 -0.53125,-3.90625 c -4.20392,-0.242792 -7.90236,-2.407521 -10.21875,-5.625 z M 144.15625,89.75 143.8125,90 l 0.53125,0 -0.1875,-0.25 z"
         id="path3838"
         style="fill:#ffffff;fill-opacity:1;fill-rule:nonzero;stroke:none" />
    </clipPath>
    <linearGradient
       x1="57.51778"
       y1="90"
       x2="57.51778"
       y2="5.5969558"
       id="linearGradient3846"
       xlink:href="#linearGradient3848"
       gradientUnits="userSpaceOnUse" />
    <clipPath
       id="clipPath3867">
      <path
         d="m 115.78125,6 c -5.78119,3.1123067 -9.71875,9.225149 -9.71875,16.25 0,10.181526 8.25597,18.4375 18.4375,18.4375 10.18153,0 18.4375,-8.255974 18.4375,-18.4375 0,-7.024851 -3.93756,-13.1376933 -9.71875,-16.25 l -17.4375,0 z m 24.78125,0 c 4.09802,4.129345 6.625,9.818866 6.625,16.09375 0,12.612729 -10.23102,22.84375 -22.84375,22.84375 -7.50479,10e-7 -14.17899,-3.627823 -18.34375,-9.21875 l 0,7.875 0.21875,-0.15625 0.4375,-0.53125 2.1875,1.6875 -0.40625,0.5625 -0.625,1.75 -0.375,2.71875 1.5625,0.875 2.15625,-1.65625 1.1875,-1.4375 0.3125,-0.625 2.53125,1.0625 -0.25,0.65625 -0.15625,1.84375 0.375,2.71875 1.71875,0.46875 1.6875,-2.1875 0.75,-1.6875 0.125,-0.6875 2.75,0.375 L 122.125,50 l 0.28125,1.84375 1.0625,2.53125 1.78125,0 1.0625,-2.53125 L 126.625,50 l -0.0625,-0.65625 2.71875,-0.375 0.125,0.6875 0.78125,1.6875 1.65625,2.1875 1.71875,-0.46875 0.375,-2.71875 L 133.75,48.5 l -0.21875,-0.65625 2.53125,-1.0625 0.3125,0.625 1.15625,1.4375 2.1875,1.65625 1.53125,-0.875 -0.34375,-2.71875 -0.65625,-1.75 -0.375,-0.5625 2.1875,-1.6875 0.4375,0.53125 1.5,1.0625 2.5625,1.0625 1.25,-1.28125 -1.0625,-2.53125 -1.0625,-1.5 -0.53125,-0.4375 1.6875,-2.1875 0.5625,0.375 1.75,0.65625 L 151.875,39 l 0.875,-1.53125 -1.65625,-2.1875 -1.4375,-1.1875 -0.625,-0.25 1.0625,-2.5625 0.65625,0.21875 1.84375,0.1875 2.71875,-0.375 0.4375,-1.71875 -2.15625,-1.6875 -1.6875,-0.75 -0.6875,-0.125 0.375,-2.75 0.6875,0.0625 1.8125,-0.3125 L 156.625,23 l 0,-1.78125 -2.53125,-1.0625 -1.8125,-0.3125 -0.6875,0.0625 -0.375,-2.75 0.6875,-0.125 1.6875,-0.75 2.15625,-1.6875 -0.4375,-1.71875 -2.71875,-0.34375 -1.84375,0.15625 -0.65625,0.25 -1.0625,-2.5625 0.625,-0.28125 1.4375,-1.1875 L 152.75,6.75 152.34375,6 l -4.4375,0 -0.5,0.1875 -0.5625,0.40625 L 146.375,6 140.5625,6 z M 124.5,8.625 c 7.53154,0 13.625,6.09346 13.625,13.625 0,7.53154 -6.09346,13.65625 -13.625,13.65625 -7.53154,0 -13.65625,-6.12471 -13.65625,-13.65625 0,-7.53154 6.12471,-13.625 13.65625,-13.625 z m 43.59375,28.21875 -1.1875,2.8125 -0.34375,2 0.0625,0.78125 -3.03125,0.375 -0.125,-0.71875 -0.84375,-1.875 -1.875,-2.40625 -1.875,0.5 -0.40625,3 0.1875,2.0625 0.25,0.6875 -2.8125,1.1875 -0.3125,-0.6875 -1.3125,-1.59375 -2.4375,-1.84375 -1.6875,1 0.40625,3.03125 0.6875,1.875 0.4375,0.65625 -2.40625,1.84375 -0.5,-0.5625 L 147.3125,47.75 144.5,46.625 143.09375,48 l 1.15625,2.8125 1.1875,1.65625 0.59375,0.5 -1.875,2.4375 -0.625,-0.4375 -1.90625,-0.71875 -3,-0.40625 -1,1.71875 1.84375,2.40625 1.59375,1.3125 0.65625,0.3125 -1.15625,2.8125 -0.71875,-0.25 -2.03125,-0.1875 -3,0.40625 -0.53125,1.90625 2.40625,1.84375 1.875,0.84375 0.75,0.15625 -0.40625,3.03125 -0.75,-0.0625 -2.03125,0.3125 -2.8125,1.1875 0,1.96875 2.8125,1.15625 2.03125,0.34375 0.75,-0.0625 0.40625,3.03125 -0.75,0.15625 -1.875,0.8125 -2.40625,1.875 0.53125,1.90625 3,0.40625 2.03125,-0.21875 0.71875,-0.25 1.15625,2.8125 -0.65625,0.34375 -1.59375,1.28125 -1.84375,2.4375 0.25,0.40625 5.9375,0 0.34375,-0.25 0.1875,0.25 6.21875,0 c -1.29523,-1.37524 -2.43984,-2.894648 -3.40625,-4.53125 l 10.90625,-5 c 2.31639,3.217479 6.01482,5.382208 10.21875,5.625 L 168.8125,90 l 5.21875,0 -0.625,-4.59375 c 3.78803,-1.284696 6.83138,-4.197457 8.28125,-7.90625 L 190,79.03125 190,73.75 182.625,72.40625 c -0.0504,-4.233581 -2.06895,-7.986155 -5.15625,-10.4375 l 5.5,-10.65625 c 2.76801,1.813686 5.15704,4.157048 7.03125,6.875 l 0,-9.84375 -0.84375,0.625 -0.5,0.5625 -2.40625,-1.84375 0.40625,-0.65625 0.75,-1.875 0.375,-3.03125 -1.71875,-1 -2.40625,1.84375 -1.28125,1.59375 -0.34375,0.6875 -2.8125,-1.1875 0.25,-0.6875 0.21875,-2.0625 -0.4375,-3 -1.875,-0.5 -1.875,2.40625 -0.84375,1.875 -0.125,0.71875 -3.03125,-0.375 0.0625,-0.78125 -0.34375,-2 -1.15625,-2.8125 -1.96875,0 z m 0.96875,10.3125 c 3.2847,0 6.43014,0.645954 9.3125,1.78125 l -5.5,10.625 c -1.20945,-0.35429 -2.48898,-0.53125 -3.8125,-0.53125 -2.62433,0 -5.08015,0.738068 -7.15625,2.03125 L 153.75,52.28125 c 4.26057,-3.217148 9.56672,-5.125 15.3125,-5.125 z m -48.75,6.3125 -0.96875,2.09375 -0.0625,0.71875 0.1875,1.25 -2.25,0.59375 -0.4375,-1.1875 -0.4375,-0.59375 L 114.5,55 l -1.09375,0.625 0.21875,2.28125 0.3125,0.65625 0.78125,1 -1.625,1.625 -1,-0.78125 -0.65625,-0.3125 -2.28125,-0.21875 -0.625,1.0625 1.34375,1.84375 0.59375,0.4375 1.15625,0.46875 -0.59375,2.21875 -1.25,-0.1875 -0.75,0.0625 -2.0625,0.9375 0,1.25 2.0625,0.9375 0.75,0.0625 1.25,-0.15625 0.59375,2.21875 -1.1875,0.46875 -0.59375,0.40625 -1.34375,1.875 0.59375,1.0625 2.28125,-0.21875 0.6875,-0.3125 1,-0.78125 1.625,1.625 -0.8125,1 -0.3125,0.6875 -0.21875,2.25 1.0625,0.625 1.875,-1.3125 0.40625,-0.59375 0.5,-1.1875 2.21875,0.59375 -0.1875,1.25 0.0625,0.75 0.9375,2.09375 1.21875,0 0.96875,-2.09375 0.0625,-0.71875 -0.1875,-1.28125 2.21875,-0.5625 0.46875,1.15625 0.4375,0.625 1.84375,1.3125 1.0625,-0.59375 -0.21875,-2.28125 -0.28125,-0.65625 -0.78125,-1 1.625,-1.625 1,0.78125 0.65625,0.3125 2.28125,0.21875 0.625,-1.0625 L 131.875,72 l -0.59375,-0.4375 -1.1875,-0.46875 0.625,-2.21875 1.25,0.1875 0.71875,-0.0625 2.09375,-0.9375 0,-1.25 -2.0625,-0.9375 -0.75,-0.09375 -1.25,0.1875 -0.59375,-2.21875 1.1875,-0.46875 0.59375,-0.4375 L 133.25,61 l -0.625,-1.0625 -2.25,0.21875 -0.6875,0.3125 -1,0.78125 -1.625,-1.65625 0.8125,-0.96875 0.28125,-0.6875 0.25,-2.25 -1.0625,-0.625 -1.875,1.3125 -0.4375,0.59375 -0.46875,1.1875 -2.21875,-0.59375 0.1875,-1.28125 -0.0625,-0.71875 -0.9375,-2.09375 -1.21875,0 z m 29.625,2.34375 8.15625,8.78125 C 156.4581,66.83303 155.5,69.579121 155.5,72.5625 c 0,1.101371 0.15791,2.193362 0.40625,3.21875 L 145,80.75 c -0.87766,-2.573536 -1.375,-5.318808 -1.375,-8.1875 0,-6.420779 2.37994,-12.275157 6.3125,-16.75 z m -29.09375,8.375 c 1.81315,0 3.28125,1.468102 3.28125,3.28125 0,1.813148 -1.4681,3.28125 -3.28125,3.28125 -1.81315,0 -3.28125,-1.468102 -3.28125,-3.28125 0,-1.813148 1.4681,-3.28125 3.28125,-3.28125 z m 48.21875,3.28125 c 2.78946,0 5.0625,2.241791 5.0625,5.03125 0,2.789459 -2.27304,5.0625 -5.0625,5.0625 -2.78946,0 -5.03125,-2.273041 -5.03125,-5.0625 0,-2.789459 2.24179,-5.03125 5.03125,-5.03125 z"
         id="path3869"
         style="fill:#ffffff;fill-opacity:1;stroke:none;display:inline" />
    </clipPath>
    <filter
       color-interpolation-filters="sRGB"
       id="filter3875">
      <feGaussianBlur
         id="feGaussianBlur3877"
         stdDeviation="0.42" />
    </filter>
    <filter
       x="-0.12"
       y="-0.12"
       width="1.24"
       height="1.24"
       color-interpolation-filters="sRGB"
       id="filter3879">
      <feGaussianBlur
         id="feGaussianBlur3881"
         stdDeviation="4.2" />
    </filter>
    <linearGradient
       x1="45.447727"
       y1="92.539597"
       x2="45.447727"
       y2="7.0165396"
       id="ButtonShadow-0"
       gradientUnits="userSpaceOnUse"
       gradientTransform="matrix(1.0058652,0,0,0.994169,100,0)">
      <stop
         id="stop3750-8"
         style="stop-color:#000000;stop-opacity:1"
         offset="0" />
      <stop
         id="stop3752-5"
         style="stop-color:#000000;stop-opacity:0.58823532"
         offset="1" />
    </linearGradient>
    <linearGradient
       x1="32.251034"
       y1="6.1317081"
       x2="32.251034"
       y2="90.238609"
       id="linearGradient3780"
       xlink:href="#ButtonShadow-0"
       gradientUnits="userSpaceOnUse"
       gradientTransform="matrix(1.0238095,0,0,1.0119048,-1.1428571,-98.071429)" />
    <linearGradient
       x1="32.251034"
       y1="6.1317081"
       x2="32.251034"
       y2="90.238609"
       id="linearGradient3772"
       xlink:href="#ButtonShadow-0"
       gradientUnits="userSpaceOnUse"
       gradientTransform="matrix(1.0238095,0,0,1.0119048,-1.1428571,-98.071429)" />
    <linearGradient
       x1="32.251034"
       y1="6.1317081"
       x2="32.251034"
       y2="90.238609"
       id="linearGradient3725"
       xlink:href="#ButtonShadow-0"
       gradientUnits="userSpaceOnUse"
       gradientTransform="matrix(1.0238095,0,0,1.0119048,-1.1428571,-98.071429)" />
    <linearGradient
       x1="32.251034"
       y1="6.1317081"
       x2="32.251034"
       y2="90.238609"
       id="linearGradient3721"
       xlink:href="#ButtonShadow-0"
       gradientUnits="userSpaceOnUse"
       gradientTransform="translate(0,-97)" />
    <linearGradient
       x1="32.251034"
       y1="6.1317081"
       x2="32.251034"
       y2="90.238609"
       id="linearGradient3811"
       xlink:href="#ButtonShadow-0"
       gradientUnits="userSpaceOnUse"
       gradientTransform="matrix(1.0238095,0,0,1.0119048,-1.1428571,-98.071429)" />
    <linearGradient
       inkscape:collect="always"
       xlink:href="#linearGradient3894"
       id="linearGradient3900"
       x1="51.254238"
       y1="41.694916"
       x2="51.05085"
       y2="60"
       gradientUnits="userSpaceOnUse"
       gradientTransform="translate(-74.311605,5.3811339)" />
    <linearGradient
       inkscape:collect="always"
       xlink:href="#linearGradient3935"
       id="linearGradient3941"
       x1="38.64407"
       y1="20.745762"
       x2="39.050846"
       y2="42.915253"
       gradientUnits="userSpaceOnUse"
       gradientTransform="matrix(1,0,0,0.44064465,-61.708069,37.171387)" />
    <linearGradient
       inkscape:collect="always"
       xlink:href="#linearGradient3935-6"
       id="linearGradient3941-0"
       x1="38.64407"
       y1="20.745762"
       x2="39.050846"
       y2="42.915253"
       gradientUnits="userSpaceOnUse"
       gradientTransform="matrix(1,0,0,0.44064465,-61.708069,37.171387)" />
    <linearGradient
       id="linearGradient3935-6">
      <stop
         style="stop-color:#956200;stop-opacity:1;"
         offset="0"
         id="stop3937-6" />
      <stop
         id="stop3943-3"
         offset="0.5"
         style="stop-color:#d28a00;stop-opacity:1;" />
      <stop
         style="stop-color:#956200;stop-opacity:1;"
         offset="1"
         id="stop3939-5" />
    </linearGradient>
    <linearGradient
       y2="42.915253"
       x2="39.050846"
       y1="20.745762"
       x1="38.64407"
       gradientTransform="matrix(1,0,0,0.44064465,-50.866748,7.0936128)"
       gradientUnits="userSpaceOnUse"
       id="linearGradient3961"
       xlink:href="#linearGradient3935-6"
       inkscape:collect="always" />
    <linearGradient
       inkscape:collect="always"
       xlink:href="#linearGradient3935-6"
       id="linearGradient4001"
       gradientUnits="userSpaceOnUse"
       gradientTransform="matrix(1,0,0,0.44064465,-62.763331,47.519894)"
       x1="38.64407"
       y1="20.745762"
       x2="39.050846"
       y2="42.915253" />
    <linearGradient
       inkscape:collect="always"
       xlink:href="#linearGradient3894"
       id="linearGradient4011"
       gradientUnits="userSpaceOnUse"
       gradientTransform="translate(-74.311605,5.3811339)"
       x1="51.254238"
       y1="41.694916"
       x2="51.05085"
       y2="60" />
    <linearGradient
       inkscape:collect="always"
       xlink:href="#linearGradient3935-6"
       id="linearGradient4013"
       gradientUnits="userSpaceOnUse"
       gradientTransform="matrix(1,0,0,0.44064465,-62.763331,47.519894)"
       x1="38.64407"
       y1="20.745762"
       x2="39.050846"
       y2="42.915253" />
    <linearGradient
       inkscape:collect="always"
       xlink:href="#linearGradient3935"
       id="linearGradient4015"
       gradientUnits="userSpaceOnUse"
       gradientTransform="matrix(1,0,0,0.44064465,-61.708069,37.171387)"
       x1="38.64407"
       y1="20.745762"
       x2="39.050846"
       y2="42.915253" />
    <linearGradient
       inkscape:collect="always"
       xlink:href="#linearGradient3853"
       id="linearGradient4030"
       gradientUnits="userSpaceOnUse"
       x1="31.783852"
       y1="26.823383"
       x2="32.215305"
       y2="50.121952" />
  </defs>
  <g
     id="layer2"
     style="display:none">
    <rect
       width="86"
       height="85"
       rx="6"
       ry="6"
       x="5"
       y="7"
       id="rect3745"
       style="opacity:0.9;fill:url(#ButtonShadow);fill-opacity:1;fill-rule:nonzero;stroke:none;filter:url(#filter3174)" />
  </g>
  <g
     id="layer4"
     style="display:inline">
    <path
       d="m 12,-95.03125 c -5.5110903,0 -10.03125,4.52016 -10.03125,10.03125 l 0,71 c 0,5.5110902 4.5201598,10.03125 10.03125,10.03125 l 72,0 c 5.51109,0 10.03125,-4.5201597 10.03125,-10.03125 l 0,-71 c 0,-5.51109 -4.52016,-10.03125 -10.03125,-10.03125 l -72,0 z"
       transform="scale(1,-1)"
       id="path3786-2"
       style="opacity:0.07999998;fill:url(#linearGradient3811);fill-opacity:1;fill-rule:nonzero;stroke:none;display:inline" />
    <path
       d="m 12,-94.03125 c -4.971633,0 -9.03125,4.059617 -9.03125,9.03125 l 0,71 c 0,4.9716329 4.0596171,9.03125 9.03125,9.03125 l 72,0 c 4.971633,0 9.03125,-4.059617 9.03125,-9.03125 l 0,-71 c 0,-4.971633 -4.059617,-9.03125 -9.03125,-9.03125 l -72,0 z"
       transform="scale(1,-1)"
       id="path3778"
       style="opacity:0.1;fill:url(#linearGradient3780);fill-opacity:1;fill-rule:nonzero;stroke:none;display:inline" />
    <path
       d="m 12,-93 c -4.4091333,0 -8,3.590867 -8,8 l 0,71 c 0,4.4091333 3.5908667,8 8,8 l 72,0 c 4.409133,0 8,-3.5908667 8,-8 l 0,-71 c 0,-4.409133 -3.590867,-8 -8,-8 l -72,0 z"
       transform="scale(1,-1)"
       id="path3770"
       style="opacity:0.2;fill:url(#linearGradient3772);fill-opacity:1;fill-rule:nonzero;stroke:none;display:inline" />
    <rect
       width="86"
       height="85"
       rx="7"
       ry="7"
       x="5"
       y="-92"
       transform="scale(1,-1)"
       id="rect3723"
       style="opacity:0.3;fill:url(#linearGradient3725);fill-opacity:1;fill-rule:nonzero;stroke:none;display:inline" />
    <rect
       width="84"
       height="84"
       rx="6"
       ry="6"
       x="6"
       y="-91"
       transform="scale(1,-1)"
       id="rect3716"
       style="opacity:0.45;fill:url(#linearGradient3721);fill-opacity:1;fill-rule:nonzero;stroke:none;display:inline" />
  </g>
  <g
     id="layer1">
    <rect
       width="84"
       height="84"
       rx="6"
       ry="6"
       x="6"
       y="6"
       id="rect2419"
       style="fill:url(#linearGradient3617);fill-opacity:1;fill-rule:nonzero;stroke:none" />
  </g>
  <g
     id="layer5">
    <rect
       width="66"
       height="66"
       rx="12"
       ry="12"
       x="15"
       y="15"
       clip-path="url(#clipPath3613)"
       id="rect3171"
       style="opacity:0.1;fill:url(#linearGradient3613);fill-opacity:1;fill-rule:nonzero;stroke:#ffffff;stroke-width:0.5;stroke-linecap:round;stroke-linejoin:miter;stroke-miterlimit:4;stroke-opacity:1;stroke-dasharray:none;stroke-dashoffset:0;filter:url(#filter3794)" />
    <path
       d="M 12,6 C 8.676,6 6,8.676 6,12 l 0,2 0,68 0,2 c 0,0.334721 0.04135,0.6507 0.09375,0.96875 0.0487,0.295596 0.09704,0.596915 0.1875,0.875 0.00988,0.03038 0.020892,0.0636 0.03125,0.09375 0.098865,0.287771 0.2348802,0.547452 0.375,0.8125 0.1445918,0.273507 0.3156161,0.535615 0.5,0.78125 0.1843839,0.245635 0.3737765,0.473472 0.59375,0.6875 0.439947,0.428056 0.94291,0.814526 1.5,1.09375 0.278545,0.139612 0.5734731,0.246947 0.875,0.34375 -0.2562018,-0.100222 -0.4867109,-0.236272 -0.71875,-0.375 -0.00741,-0.0044 -0.023866,0.0045 -0.03125,0 -0.031933,-0.0193 -0.062293,-0.04251 -0.09375,-0.0625 -0.120395,-0.0767 -0.2310226,-0.163513 -0.34375,-0.25 -0.1061728,-0.0808 -0.2132809,-0.161112 -0.3125,-0.25 C 8.4783201,88.557317 8.3087904,88.373362 8.15625,88.1875 8.0486711,88.057245 7.9378561,87.922215 7.84375,87.78125 7.818661,87.74287 7.805304,87.69538 7.78125,87.65625 7.716487,87.553218 7.6510225,87.451733 7.59375,87.34375 7.4927417,87.149044 7.3880752,86.928049 7.3125,86.71875 7.30454,86.69694 7.288911,86.6782 7.28125,86.65625 7.2494249,86.5643 7.2454455,86.469419 7.21875,86.375 7.1884177,86.268382 7.1483606,86.171969 7.125,86.0625 7.0521214,85.720988 7,85.364295 7,85 L 7,83 7,15 7,13 C 7,10.218152 9.2181517,8 12,8 l 2,0 68,0 2,0 c 2.781848,0 5,2.218152 5,5 l 0,2 0,68 0,2 c 0,0.364295 -0.05212,0.720988 -0.125,1.0625 -0.04415,0.206893 -0.08838,0.397658 -0.15625,0.59375 -0.0077,0.02195 -0.0233,0.04069 -0.03125,0.0625 -0.06274,0.173739 -0.138383,0.367449 -0.21875,0.53125 -0.04158,0.0828 -0.07904,0.169954 -0.125,0.25 -0.0546,0.09721 -0.126774,0.18835 -0.1875,0.28125 -0.09411,0.140965 -0.204921,0.275995 -0.3125,0.40625 -0.143174,0.17445 -0.303141,0.346998 -0.46875,0.5 -0.01117,0.0102 -0.01998,0.02115 -0.03125,0.03125 -0.138386,0.125556 -0.285091,0.234436 -0.4375,0.34375 -0.102571,0.07315 -0.204318,0.153364 -0.3125,0.21875 -0.0074,0.0045 -0.02384,-0.0044 -0.03125,0 -0.232039,0.138728 -0.462548,0.274778 -0.71875,0.375 0.301527,-0.0968 0.596455,-0.204138 0.875,-0.34375 0.55709,-0.279224 1.060053,-0.665694 1.5,-1.09375 0.219973,-0.214028 0.409366,-0.441865 0.59375,-0.6875 0.184384,-0.245635 0.355408,-0.507743 0.5,-0.78125 0.14012,-0.265048 0.276135,-0.524729 0.375,-0.8125 0.01041,-0.03078 0.02133,-0.06274 0.03125,-0.09375 0.09046,-0.278085 0.1388,-0.579404 0.1875,-0.875 C 89.95865,84.6507 90,84.334721 90,84 l 0,-2 0,-68 0,-2 C 90,8.676 87.324,6 84,6 L 12,6 z"
       id="rect3728"
       style="opacity:0.5;fill:url(#linearGradient3188);fill-opacity:1;fill-rule:nonzero;stroke:none" />
    <path
       d="M 12,90 C 8.676,90 6,87.324 6,84 L 6,82 6,14 6,12 c 0,-0.334721 0.04135,-0.6507 0.09375,-0.96875 0.0487,-0.295596 0.09704,-0.596915 0.1875,-0.875 C 6.29113,10.12587 6.302142,10.09265 6.3125,10.0625 6.411365,9.774729 6.5473802,9.515048 6.6875,9.25 6.8320918,8.976493 7.0031161,8.714385 7.1875,8.46875 7.3718839,8.223115 7.5612765,7.995278 7.78125,7.78125 8.221197,7.353194 8.72416,6.966724 9.28125,6.6875 9.559795,6.547888 9.8547231,6.440553 10.15625,6.34375 9.9000482,6.443972 9.6695391,6.580022 9.4375,6.71875 c -0.00741,0.0044 -0.023866,-0.0045 -0.03125,0 -0.031933,0.0193 -0.062293,0.04251 -0.09375,0.0625 -0.120395,0.0767 -0.2310226,0.163513 -0.34375,0.25 -0.1061728,0.0808 -0.2132809,0.161112 -0.3125,0.25 C 8.4783201,7.442683 8.3087904,7.626638 8.15625,7.8125 8.0486711,7.942755 7.9378561,8.077785 7.84375,8.21875 7.818661,8.25713 7.805304,8.30462 7.78125,8.34375 7.716487,8.446782 7.6510225,8.548267 7.59375,8.65625 7.4927417,8.850956 7.3880752,9.071951 7.3125,9.28125 7.30454,9.30306 7.288911,9.3218 7.28125,9.34375 7.2494249,9.4357 7.2454455,9.530581 7.21875,9.625 7.1884177,9.731618 7.1483606,9.828031 7.125,9.9375 7.0521214,10.279012 7,10.635705 7,11 l 0,2 0,68 0,2 c 0,2.781848 2.2181517,5 5,5 l 2,0 68,0 2,0 c 2.781848,0 5,-2.218152 5,-5 l 0,-2 0,-68 0,-2 C 89,10.635705 88.94788,10.279012 88.875,9.9375 88.83085,9.730607 88.78662,9.539842 88.71875,9.34375 88.71105,9.3218 88.69545,9.30306 88.6875,9.28125 88.62476,9.107511 88.549117,8.913801 88.46875,8.75 88.42717,8.6672 88.38971,8.580046 88.34375,8.5 88.28915,8.40279 88.216976,8.31165 88.15625,8.21875 88.06214,8.077785 87.951329,7.942755 87.84375,7.8125 87.700576,7.63805 87.540609,7.465502 87.375,7.3125 87.36383,7.3023 87.35502,7.29135 87.34375,7.28125 87.205364,7.155694 87.058659,7.046814 86.90625,6.9375 86.803679,6.86435 86.701932,6.784136 86.59375,6.71875 c -0.0074,-0.0045 -0.02384,0.0044 -0.03125,0 -0.232039,-0.138728 -0.462548,-0.274778 -0.71875,-0.375 0.301527,0.0968 0.596455,0.204138 0.875,0.34375 0.55709,0.279224 1.060053,0.665694 1.5,1.09375 0.219973,0.214028 0.409366,0.441865 0.59375,0.6875 0.184384,0.245635 0.355408,0.507743 0.5,0.78125 0.14012,0.265048 0.276135,0.524729 0.375,0.8125 0.01041,0.03078 0.02133,0.06274 0.03125,0.09375 0.09046,0.278085 0.1388,0.579404 0.1875,0.875 C 89.95865,11.3493 90,11.665279 90,12 l 0,2 0,68 0,2 c 0,3.324 -2.676,6 -6,6 l -72,0 z"
       id="path3615"
       style="opacity:0.2;fill:url(#radialGradient3619);fill-opacity:1;fill-rule:nonzero;stroke:none" />
  </g>
  <g
     id="g4005"
     transform="translate(-2.3010935,2.8763665)">
    <path
       sodipodi:nodetypes="ccaaaaaaaccaaaaaaac"
       inkscape:connector-curvature="0"
       id="rect3884"
       d="m -46.752285,46.889606 44.2336827,2.581179 c 0,0 -1.3130519,0.954697 -1.8182698,1.5783 -0.3405191,0.420311 -0.6320999,0.901086 -0.7863778,1.419558 -0.1580055,0.530999 -0.088177,1.104587 -0.1204911,1.657653 -0.033987,0.5817 -0.094305,1.163932 -0.077172,1.746372 0.018147,0.616937 0.1219862,1.228395 0.1903321,1.841803 0.060149,0.539843 0.096155,1.083625 0.1933787,1.618037 0.1245112,0.684401 0.1839753,1.405899 0.4980244,2.02661 0.4108319,0.812 1.7500119,2.095374 1.7500119,2.095374 l -44.0631211,2.435114 c 0,0 -1.618924,-1.666455 -2.140862,-2.685295 -0.376988,-0.735893 -0.482504,-1.582979 -0.670692,-2.388115 -0.183975,-0.787114 -0.372245,-1.578559 -0.447096,-2.383415 -0.07331,-0.788253 -6.5e-5,-1.583307 -7.8e-5,-2.374961 -1.3e-5,-0.791667 -0.07381,-1.586782 0,-2.375 0.07485,-0.799336 0.262806,-1.585247 0.447174,-2.366624 0.187948,-0.796549 0.249847,-1.659957 0.670692,-2.361885 0.509806,-0.850306 2.140862,-2.064705 2.140864,-2.064705 z"
       style="fill:url(#linearGradient4011);fill-opacity:1;stroke:none"
       transform="matrix(0.42964152,-0.90299954,0.90299954,0.42964152,0,0)" />
    <path
       sodipodi:nodetypes="ccaaaaaaaaaacccccccccc"
       inkscape:connector-curvature="0"
       id="rect3925-0"
       d="m -45.535916,56.183199 44.0752997,-0.106917 c 0,0 0.64035557,0.119202 0.92071712,0.273871 0.28565767,0.157591 0.51359964,0.406383 0.73637143,0.644727 0.17569288,0.187974 0.33650497,0.392656 0.46813688,0.613733 0.14814476,0.248811 0.25655728,0.520453 0.35617617,0.792353 0.109216,0.298095 0.2236224,0.600341 0.2631433,0.915343 0.042902,0.341956 0.027612,0.693878 -0.031335,1.033436 -0.070587,0.406608 -0.2113836,0.801862 -0.38176049,1.17774 -0.10143141,0.223774 -0.22622926,0.439457 -0.37749188,0.633061 -0.14119839,0.180723 -0.30748587,0.343586 -0.48814743,0.484862 -0.32777041,0.256315 -0.68110089,0.492421 -1.0672288,0.647457 -0.2903623,0.116585 -0.9164,0.203301 -0.9164,0.203301 l -44.106934,2.665241 2.176233,-1.206417 1.120674,-1.343035 0.980339,-1.674336 0.133799,-1.27778 -0.570175,-1.424457 -0.735026,-1.267826 -0.792069,-1.082289 z"
       style="fill:url(#linearGradient4013);fill-opacity:1;stroke:none"
       transform="matrix(0.42420559,-0.90556591,0.90556591,0.42420559,0,0)" />
    <path
       sodipodi:nodetypes="ccaaaaaaaaacccccccccc"
       inkscape:connector-curvature="0"
       id="rect3925"
       d="m -46.637708,46.280246 44.8217436,2.702206 c 0,0 0.5704116,0.05927 0.8329422,0.165073 0.3918459,0.157913 0.76941077,0.384301 1.06666757,0.684498 0.2598335,0.262403 0.43011571,0.604924 0.58911796,0.938222 0.16397263,0.343716 0.26323326,0.715363 0.36974007,1.080992 0.091154,0.312925 0.2119592,0.624946 0.2299011,0.950383 0.016988,0.308128 -0.041932,0.619093 -0.117436,0.91831 -0.089202,0.353499 -0.20984825,0.705385 -0.39262146,1.020842 -0.17683325,0.305204 -0.40051986,0.590734 -0.66792809,0.820762 -0.25343572,0.218008 -0.55057183,0.392706 -0.86374569,0.509665 -0.25643826,0.09577 -0.80768566,0.148446 -0.80768566,0.148446 L -45.389,56.06293 l 1.695926,-1.147036 1.328134,-1.450013 0.421997,-1.178928 -0.01964,-1.60605 -0.34443,-1.451819 -0.76502,-1.331699 -1.19214,-0.89006 z"
       style="fill:url(#linearGradient4015);fill-opacity:1;stroke:none"
       transform="matrix(0.42895876,-0.90332407,0.90332407,0.42895876,0,0)" />
    <path
       sodipodi:nodetypes="cssssssccsssssscccssssssccssssssccc"
       inkscape:connector-curvature="0"
       id="path3802"
       d="m 27.067593,67.800627 c -1.010745,-0.575273 -1.96909,-1.251198 -2.604912,-1.887019 -0.635821,-0.635822 -1.057715,-1.55333 -1.057715,-2.58261 0,-1.02928 0.221933,-1.547191 0.857754,-2.183013 0.635822,-0.635822 1.238724,-0.586885 2.105651,-0.586885 0.866927,0 1.669455,0.351029 2.305277,0.986851 0.635822,0.635822 1.084076,1.153364 1.084076,2.182644 0,1.02928 -1.048809,2.44721 -1.684631,3.083032 l 1.383,0.818 c 0.897445,-0.897445 2.037369,-2.590626 2.037369,-3.901032 0,-1.310406 -0.539203,-2.104076 -1.436648,-3.00152 -0.897445,-0.897445 -2.215684,-1.511772 -3.688443,-1.511772 -1.472759,0 -2.564251,0.214361 -3.461696,1.111806 -0.897445,0.897444 -1.237447,1.691483 -1.237447,3.001889 0,1.310406 0.539963,2.504041 1.437408,3.401486 0.897445,0.897445 2.132016,1.764961 3.460957,2.412143 l 3.077,1.443 2.777,1.043 c 1.400809,0.46599 2.115232,0.611663 3.58799,0.611663 1.472759,0 2.564251,-0.21436 3.461696,-1.111806 0.897445,-0.897444 1.237447,-1.691483 1.237447,-3.001889 0,-1.310406 -0.539963,-2.504041 -1.437408,-3.401486 -0.897445,-0.897445 -2.188563,-1.511772 -3.661321,-1.511772 -1.47276,0 -2.591037,0.214731 -3.488483,1.112175 -0.897445,0.897445 -0.936789,2.690709 -0.936789,4.001115 l 1.735737,0 c 0,-1.02928 -0.0516,-2.546416 0.584218,-3.182239 0.635822,-0.63582 1.238389,-0.587254 2.105317,-0.587254 0.866926,0 1.669455,0.35103 2.305276,0.986851 0.635821,0.635823 1.057715,1.55333 1.057715,2.58261 0,1.02928 -0.221933,1.547191 -0.857754,2.183014 -0.635821,0.635821 -1.238723,0.586885 -2.105651,0.586884 -0.866927,0 -1.637713,0.03323 -2.70499,-0.386866 l -3.219,-1.206 z"
       style="font-size:medium;font-style:normal;font-variant:normal;font-weight:normal;font-stretch:normal;text-indent:0;text-align:start;text-decoration:none;line-height:normal;letter-spacing:normal;word-spacing:normal;text-transform:none;direction:ltr;block-progression:tb;writing-mode:lr-tb;text-anchor:start;baseline-shift:baseline;color:#000000;fill:#d28a00;fill-opacity:1;stroke:none;stroke-width:2;marker:none;visibility:visible;display:inline;overflow:visible;enable-background:accumulate;font-family:Sans;-inkscape-font-specification:Sans" />
  </g>
  <g
     id="g4016"
     transform="matrix(-0.68399824,-0.72948366,0.72948366,-0.68399824,50.149075,99.795803)">
    <path
       sodipodi:nodetypes="csssssssssssssssc"
       inkscape:connector-curvature="0"
       id="path3060"
       d="m 52.349455,39.04794 c -1.222456,1.883729 -6.74709,3.734343 -4.849455,4.821263 2.132857,1.221649 -8.389716,1.939359 -6.579997,3.500967 1.17837,1.016816 -8.381188,1.376308 -6.808438,2.387563 2.215063,1.424254 -7.419174,-0.588315 -6.287829,0.579684 2.23812,2.310632 -6.025044,-3.287438 -6,-1.402078 0.01922,1.446903 -6.512234,-4.227287 -7.101719,-5.672607 -0.294742,-0.72266 -0.398565,-1.281311 -1.129017,-2.067738 -0.730452,-0.786428 -2.087534,-1.60069 -2.087534,-2.434691 0,-0.834001 1.357082,-1.504445 2.087534,-2.147054 0.730452,-0.642608 0.834275,-1.457322 1.129017,-2.179982 0.589485,-1.44532 7.782069,-7.296177 7.101719,-5.938606 -0.841047,1.678224 8.981642,-3.373629 6.61017,-1.200078 -1.442416,1.322033 8.123128,-1.046513 6.491218,0.07905 -1.540522,1.062531 9.174324,1.617631 6.808438,2.588197 -1.264836,0.518878 8.158827,3.74905 5.766438,4.346967 -1.694246,0.423434 3.627,3.071138 4.849455,4.739143 z"
       style="fill:url(#linearGradient4030);fill-opacity:1;stroke:#006103;stroke-opacity:1" />
    <path
       sodipodi:nodetypes="caaaaaaaccaaaaaaacc"
       inkscape:connector-curvature="0"
       id="rect3834"
       d="m 51.762712,38.553 c -1.86712,0 -3.65505,-0.33488 -5.481556,-0.512988 -1.756497,-0.17128 -3.50895,-0.385044 -5.267451,-0.53435 -1.69507,-0.143919 -3.392544,-0.263678 -5.091606,-0.348325 -1.6501,-0.08221 -3.301972,-0.136662 -4.954018,-0.15487 -1.6182,-0.01783 -3.237163,-0.0053 -4.854689,0.04471 -1.59932,0.04942 -3.198035,0.132317 -4.793619,0.252225 -1.593357,0.119741 -3.180852,0.307752 -4.770807,0.46639 C 14.953227,37.925008 13.364955,38.253 11.762712,38.253 l 0,1 c 0,0 3.333338,-0.308353 5,-0.462598 1.666671,-0.154244 3.330593,-0.341778 5,-0.46287 1.664593,-0.120742 3.331914,-0.208573 5,-0.262775 1.665917,-0.05413 3.333251,-0.07478 5,-0.06229 1.667248,0.0125 3.334582,0.0582 5,0.13729 1.668585,0.07924 3.335897,0.192116 5,0.337775 1.669898,0.146165 3.333329,0.358624 5,0.537869 1.666662,0.179245 5,0.537598 5,0.537598 z"
       style="font-size:medium;font-style:normal;font-variant:normal;font-weight:normal;font-stretch:normal;text-indent:0;text-align:start;text-decoration:none;line-height:normal;letter-spacing:normal;word-spacing:normal;text-transform:none;direction:ltr;block-progression:tb;writing-mode:lr-tb;text-anchor:start;baseline-shift:baseline;color:#000000;fill:#006103;fill-opacity:1;stroke:none;stroke-width:1.5;marker:none;visibility:visible;display:inline;overflow:visible;enable-background:accumulate;font-family:Sans;-inkscape-font-specification:Sans" />
    <path
       sodipodi:nodetypes="caaaccaaacc"
       inkscape:connector-curvature="0"
       id="rect3834-6"
       d="m 41.252,29.066 c -1.253895,0.680166 -1.91921,0.986075 -2.785847,1.621106 -0.66514,0.487384 -1.27884,1.051088 -1.830586,1.663894 -0.514683,0.571641 -0.977338,1.19622 -1.365036,1.860571 -0.574153,0.983855 -0.96447,1.859414 -1.404531,3.115429 l 0.937,-0.02309 c 0.416077,-1.073166 0.736617,-1.791663 1.226469,-2.623481 C 36.42625,34.006654 36.870277,33.350569 37.406,32.781 37.975493,32.175527 38.654094,31.678112 39.331847,31.196894 40.145028,30.61952 40.609977,30.215358 41.888,29.642 z"
       style="font-size:medium;font-style:normal;font-variant:normal;font-weight:normal;font-stretch:normal;text-indent:0;text-align:start;text-decoration:none;line-height:normal;letter-spacing:normal;word-spacing:normal;text-transform:none;direction:ltr;block-progression:tb;writing-mode:lr-tb;text-anchor:start;baseline-shift:baseline;color:#000000;fill:#006103;fill-opacity:1;stroke:none;stroke-width:1.5;marker:none;visibility:visible;display:inline;overflow:visible;enable-background:accumulate;font-family:Sans;-inkscape-font-specification:Sans" />
    <path
       sodipodi:nodetypes="caaccaacc"
       inkscape:connector-curvature="0"
       id="rect3834-6-6"
       d="m 47.396,33.417 c -1.365248,0.413494 -1.867371,0.405251 -2.723,0.811325 -0.782318,0.371282 -1.479697,0.910215 -2.149,1.459675 -0.774818,0.636081 -1.973107,1.844676 -2.142,2.111 l 0.934,0.062 c 1.190225,-1.106054 1.192121,-1.172119 1.854152,-1.679 0.675761,-0.517393 1.370746,-1.033699 2.148193,-1.38 0.777492,-0.346321 1.09552,-0.369882 2.462875,-0.673898 z"
       style="font-size:medium;font-style:normal;font-variant:normal;font-weight:normal;font-stretch:normal;text-indent:0;text-align:start;text-decoration:none;line-height:normal;letter-spacing:normal;word-spacing:normal;text-transform:none;direction:ltr;block-progression:tb;writing-mode:lr-tb;text-anchor:start;baseline-shift:baseline;color:#000000;fill:#006103;fill-opacity:1;stroke:none;stroke-width:1.5;marker:none;visibility:visible;display:inline;overflow:visible;enable-background:accumulate;font-family:Sans;-inkscape-font-specification:Sans" />
    <path
       sodipodi:nodetypes="caaaaccaaaacc"
       inkscape:connector-curvature="0"
       id="rect3834-6-4"
       d="m 33.875018,27.085615 c -1.187872,0.789835 -1.700438,0.924382 -2.448973,1.52932 -0.657759,0.531575 -1.228204,1.16899 -1.765488,1.822094 -0.486245,0.591062 -0.926544,1.223345 -1.310079,1.885682 -0.430489,0.743421 -0.78485,1.531203 -1.103726,2.328897 -0.350869,0.877725 -0.72934,2.12471 -0.88667,2.693589 l 0.993836,0.107606 c 0.179648,-0.657028 0.528611,-1.763699 0.883056,-2.611513 0.29201,-0.698474 0.635506,-1.377115 1.020274,-2.029103 0.395287,-0.669812 0.828357,-1.321098 1.318195,-1.925215 0.534619,-0.659345 1.115105,-1.288209 1.758512,-1.841906 C 33.147715,28.344767 33.747522,27.87862 34.969,27.193 z"
       style="font-size:medium;font-style:normal;font-variant:normal;font-weight:normal;font-stretch:normal;text-indent:0;text-align:start;text-decoration:none;line-height:normal;letter-spacing:normal;word-spacing:normal;text-transform:none;direction:ltr;block-progression:tb;writing-mode:lr-tb;text-anchor:start;baseline-shift:baseline;color:#000000;fill:#006103;fill-opacity:1;stroke:none;stroke-width:1.5;marker:none;visibility:visible;display:inline;overflow:visible;enable-background:accumulate;font-family:Sans;-inkscape-font-specification:Sans" />
    <path
       sodipodi:nodetypes="caaaccaaacc"
       inkscape:connector-curvature="0"
       id="rect3834-6-9"
       d="m 21.096713,28.40955 c -1.021918,0.995271 -1.188661,1.442121 -1.710057,2.215818 -0.473712,0.70294 -0.885193,1.447098 -1.282737,2.195754 -0.346162,0.651885 -0.704738,1.302997 -0.958311,1.996166 C 16.76907,35.846595 16.419531,36.823736 16.32,38 l 0.992,0.051 c 0.110906,-1.357769 0.462738,-1.972722 0.815068,-2.919776 0.261628,-0.70325 0.611953,-1.37126 0.959,-2.036518 0.393668,-0.754639 0.791374,-1.511634 1.272229,-2.21394 0.488962,-0.714146 0.55683,-1.121278 1.630989,-2.020315 z"
       style="font-size:medium;font-style:normal;font-variant:normal;font-weight:normal;font-stretch:normal;text-indent:0;text-align:start;text-decoration:none;line-height:normal;letter-spacing:normal;word-spacing:normal;text-transform:none;direction:ltr;block-progression:tb;writing-mode:lr-tb;text-anchor:start;baseline-shift:baseline;color:#000000;fill:#006103;fill-opacity:1;stroke:none;stroke-width:1.5;marker:none;visibility:visible;display:inline;overflow:visible;enable-background:accumulate;font-family:Sans;-inkscape-font-specification:Sans" />
    <path
       sodipodi:nodetypes="caaaaccaaaacc"
       inkscape:connector-curvature="0"
       id="rect3834-6-8"
       d="m 27.719,26.885 c -1.097893,0.910774 -1.27628,1.069815 -1.864116,1.658038 -0.657626,0.65806 -1.280118,1.354033 -1.853513,2.086654 -0.476936,0.609377 -0.926892,1.243731 -1.314371,1.913559 -0.518157,0.89573 -0.994515,1.824644 -1.341984,2.799367 -0.279301,0.783498 -0.70725,2.418095 -0.587942,2.425126 L 21.610926,37.688 c 0.109312,0.118685 0.356834,-1.565697 0.657776,-2.306319 0.363115,-0.893632 0.863154,-1.728411 1.372298,-2.547681 0.400108,-0.643819 0.847683,-1.258658 1.317629,-1.853419 0.57848,-0.732121 1.197455,-1.433317 1.844486,-2.10562 0.594965,-0.618202 0.727503,-0.958272 1.869811,-1.768961 z"
       style="font-size:medium;font-style:normal;font-variant:normal;font-weight:normal;font-stretch:normal;text-indent:0;text-align:start;text-decoration:none;line-height:normal;letter-spacing:normal;word-spacing:normal;text-transform:none;direction:ltr;block-progression:tb;writing-mode:lr-tb;text-anchor:start;baseline-shift:baseline;color:#000000;fill:#006103;fill-opacity:1;stroke:none;stroke-width:1.5;marker:none;visibility:visible;display:inline;overflow:visible;enable-background:accumulate;font-family:Sans;-inkscape-font-specification:Sans" />
    <path
       sodipodi:nodetypes="caaccaacc"
       inkscape:connector-curvature="0"
       id="rect3834-6-6-7"
       d="m 47.198,44.543 c -1.416095,-0.566036 -1.973711,-0.864465 -2.82211,-1.51185 -0.788804,-0.601909 -1.423215,-1.389271 -2.0485,-2.159676 -0.71775,-0.884329 -1.061497,-1.37532 -1.942254,-2.811136 l 0.934,-0.062 c 0.935988,1.309444 1.037618,1.635758 1.654406,2.379137 0.621256,0.748763 1.279042,1.483527 2.047693,2.08 0.719628,0.558431 0.99502,0.764424 2.362375,1.373525 z"
       style="font-size:medium;font-style:normal;font-variant:normal;font-weight:normal;font-stretch:normal;text-indent:0;text-align:start;text-decoration:none;line-height:normal;letter-spacing:normal;word-spacing:normal;text-transform:none;direction:ltr;block-progression:tb;writing-mode:lr-tb;text-anchor:start;baseline-shift:baseline;color:#000000;fill:#006103;fill-opacity:1;stroke:none;stroke-width:1.5;marker:none;visibility:visible;display:inline;overflow:visible;enable-background:accumulate;font-family:Sans;-inkscape-font-specification:Sans" />
    <path
       sodipodi:nodetypes="caaaccaaacc"
       inkscape:connector-curvature="0"
       id="rect3834-6-5"
       d="m 40.402,48.073 c -1.101353,-0.832708 -1.737092,-1.188501 -2.485631,-1.920659 -0.693742,-0.678562 -1.319316,-1.438911 -1.830586,-2.26373 -0.53338,-0.860492 -0.897925,-1.817666 -1.265518,-2.760967 -0.472747,-1.213147 -0.66239,-1.747893 -1.204146,-3.715772 l 0.937,0.02309 c 0.466925,1.581641 0.604942,2.177686 1.026084,3.223824 0.388353,0.964687 0.810431,1.927473 1.377446,2.799214 0.517408,0.795474 1.151717,1.516255 1.825414,2.184553 0.691087,0.68555 1.130456,1.026852 2.255937,1.854447 z"
       style="font-size:medium;font-style:normal;font-variant:normal;font-weight:normal;font-stretch:normal;text-indent:0;text-align:start;text-decoration:none;line-height:normal;letter-spacing:normal;word-spacing:normal;text-transform:none;direction:ltr;block-progression:tb;writing-mode:lr-tb;text-anchor:start;baseline-shift:baseline;color:#000000;fill:#006103;fill-opacity:1;stroke:none;stroke-width:1.5;marker:none;visibility:visible;display:inline;overflow:visible;enable-background:accumulate;font-family:Sans;-inkscape-font-specification:Sans" />
    <path
       sodipodi:nodetypes="caaaaccaaaacc"
       inkscape:connector-curvature="0"
       id="rect3834-6-4-2"
       d="m 33.273009,49.994693 c -0.933635,-0.89153 -1.472777,-1.517409 -2.148487,-2.329288 -0.592239,-0.711586 -1.170033,-1.44053 -1.665744,-2.222434 -0.461606,-0.728108 -0.853954,-1.500654 -1.210039,-2.285781 -0.387497,-0.854388 -0.716927,-1.736148 -1.003863,-2.629346 -0.315566,-0.982319 -0.629292,-2.170547 -0.786622,-2.993663 l 0.993836,-0.107606 c 0.179648,1.01296 0.467347,1.957435 0.783008,2.911588 0.262241,0.792677 0.572795,1.570426 0.920411,2.329551 0.364308,0.795578 0.753545,1.583827 1.218155,2.325314 0.493645,0.787826 1.074629,1.518967 1.658768,2.242247 0.739975,0.916235 1.265623,1.61048 2.334559,2.652033 z"
       style="font-size:medium;font-style:normal;font-variant:normal;font-weight:normal;font-stretch:normal;text-indent:0;text-align:start;text-decoration:none;line-height:normal;letter-spacing:normal;word-spacing:normal;text-transform:none;direction:ltr;block-progression:tb;writing-mode:lr-tb;text-anchor:start;baseline-shift:baseline;color:#000000;fill:#006103;fill-opacity:1;stroke:none;stroke-width:1.5;marker:none;visibility:visible;display:inline;overflow:visible;enable-background:accumulate;font-family:Sans;-inkscape-font-specification:Sans" />
    <path
       sodipodi:nodetypes="caaaaccaaaacc"
       inkscape:connector-curvature="0"
       id="rect3834-6-8-1"
       d="M 27.175037,50.512502 C 26.382229,49.398338 25.977439,49.091232 25.410979,48.354945 24.837315,47.609294 24.258587,46.863924 23.757,46.068 c -0.488409,-0.775012 -0.923929,-1.584858 -1.313963,-2.413749 -0.473894,-1.00711 -0.935354,-2.029565 -1.241992,-3.099527 -0.254211,-0.887028 -0.607002,-2.71788 -0.487694,-2.724911 l 0.853852,0.07974 c 0.109312,-0.118685 0.376954,1.755313 0.657797,2.606105 0.321775,0.974794 0.732148,1.920338 1.172037,2.84784 0.365888,0.771471 0.762907,1.53091 1.217443,2.25371 0.527352,0.83859 1.149182,1.614194 1.74473,2.40581 0.576568,0.766387 0.72914,1.051011 1.769753,2.26848 z"
       style="font-size:medium;font-style:normal;font-variant:normal;font-weight:normal;font-stretch:normal;text-indent:0;text-align:start;text-decoration:none;line-height:normal;letter-spacing:normal;word-spacing:normal;text-transform:none;direction:ltr;block-progression:tb;writing-mode:lr-tb;text-anchor:start;baseline-shift:baseline;color:#000000;fill:#006103;fill-opacity:1;stroke:none;stroke-width:1.5;marker:none;visibility:visible;display:inline;overflow:visible;enable-background:accumulate;font-family:Sans;-inkscape-font-specification:Sans" />
    <path
       sodipodi:nodetypes="caaaccaaacc"
       inkscape:connector-curvature="0"
       id="rect3834-6-9-2"
       d="m 21.012,48.886 c -0.818528,-1.249509 -1.1793,-1.719307 -1.710791,-2.61521 -0.462185,-0.779078 -0.894034,-1.577562 -1.282737,-2.395784 -0.35585,-0.749065 -0.710611,-1.50447 -0.958311,-2.295907 -0.344447,-1.10056 -0.625781,-2.206459 -0.725312,-3.382723 l 0.992,-0.051 c 0.110906,1.357769 0.391989,2.102914 0.714772,3.119787 0.25469,0.802357 0.602518,1.573656 0.959,2.336259 0.385176,0.823986 0.812653,1.629048 1.272229,2.41397 0.505665,0.863638 0.760381,1.316486 1.63115,2.520608 z"
       style="font-size:medium;font-style:normal;font-variant:normal;font-weight:normal;font-stretch:normal;text-indent:0;text-align:start;text-decoration:none;line-height:normal;letter-spacing:normal;word-spacing:normal;text-transform:none;direction:ltr;block-progression:tb;writing-mode:lr-tb;text-anchor:start;baseline-shift:baseline;color:#000000;fill:#006103;fill-opacity:1;stroke:none;stroke-width:1.5;marker:none;visibility:visible;display:inline;overflow:visible;enable-background:accumulate;font-family:Sans;-inkscape-font-specification:Sans" />
  </g>
</svg>
